<svg width="20" height="21" viewBox="0 0 20 21" fill="none" xmlns="http://www.w3.org/2000/svg">
<path d="M15.8333 3.5H14.1667V2.625C14.1667 2.39294 14.0789 2.17038 13.9226 2.00628C13.7663 1.84219 13.5543 1.75 13.3333 1.75C13.1123 1.75 12.9004 1.84219 12.7441 2.00628C12.5878 2.17038 12.5 2.39294 12.5 2.625V3.5H7.5V2.625C7.5 2.39294 7.4122 2.17038 7.25592 2.00628C7.09964 1.84219 6.88768 1.75 6.66667 1.75C6.44565 1.75 6.23369 1.84219 6.07741 2.00628C5.92113 2.17038 5.83333 2.39294 5.83333 2.625V3.5H4.16667C3.50363 3.5 2.86774 3.77656 2.3989 4.26884C1.93006 4.76113 1.66667 5.42881 1.66667 6.125V16.625C1.66667 17.3212 1.93006 17.9889 2.3989 18.4812C2.86774 18.9734 3.50363 19.25 4.16667 19.25H15.8333C16.4964 19.25 17.1323 18.9734 17.6011 18.4812C18.0699 17.9889 18.3333 17.3212 18.3333 16.625V6.125C18.3333 5.42881 18.0699 4.76113 17.6011 4.26884C17.1323 3.77656 16.4964 3.5 15.8333 3.5V3.5ZM16.6667 16.625C16.6667 16.8571 16.5789 17.0796 16.4226 17.2437C16.2663 17.4078 16.0543 17.5 15.8333 17.5H4.16667C3.94565 17.5 3.73369 17.4078 3.57741 17.2437C3.42113 17.0796 3.33333 16.8571 3.33333 16.625V10.5H16.6667V16.625ZM16.6667 8.75H3.33333V6.125C3.33333 5.89294 3.42113 5.67038 3.57741 5.50628C3.73369 5.34219 3.94565 5.25 4.16667 5.25H5.83333V6.125C5.83333 6.35706 5.92113 6.57962 6.07741 6.74372C6.23369 6.90781 6.44565 7 6.66667 7C6.88768 7 7.09964 6.90781 7.25592 6.74372C7.4122 6.57962 7.5 6.35706 7.5 6.125V5.25H12.5V6.125C12.5 6.35706 12.5878 6.57962 12.7441 6.74372C12.9004 6.90781 13.1123 7 13.3333 7C13.5543 7 13.7663 6.90781 13.9226 6.74372C14.0789 6.57962 14.1667 6.35706 14.1667 6.125V5.25H15.8333C16.0543 5.25 16.2663 5.34219 16.4226 5.50628C16.5789 5.67038 16.6667 5.89294 16.6667 6.125V8.75Z" fill="#959696"/>
</svg>
