<svg width="21" height="22" viewBox="0 0 21 22" fill="none" xmlns="http://www.w3.org/2000/svg">
<path d="M11.1213 12.1825C11.038 12.0991 10.9399 12.0336 10.8325 11.99C10.6195 11.8983 10.3805 11.8983 10.1675 11.99C10.0601 12.0336 9.96197 12.0991 9.87875 12.1825L7.69125 14.4742C7.52648 14.6468 7.43392 14.8809 7.43392 15.125C7.43392 15.3691 7.52648 15.6032 7.69125 15.7758C7.85602 15.9485 8.07949 16.0454 8.3125 16.0454C8.54551 16.0454 8.76898 15.9485 8.93375 15.7758L9.625 15.0425V19.25C9.625 19.4931 9.71719 19.7263 9.88128 19.8982C10.0454 20.0701 10.2679 20.1667 10.5 20.1667C10.7321 20.1667 10.9546 20.0701 11.1187 19.8982C11.2828 19.7263 11.375 19.4931 11.375 19.25V15.0425L12.0662 15.7758C12.1476 15.8618 12.2444 15.93 12.351 15.9765C12.4576 16.023 12.572 16.047 12.6875 16.047C12.803 16.047 12.9174 16.023 13.024 15.9765C13.1306 15.93 13.2274 15.8618 13.3088 15.7758C13.3908 15.6906 13.4559 15.5892 13.5003 15.4775C13.5447 15.3658 13.5676 15.246 13.5676 15.125C13.5676 15.004 13.5447 14.8842 13.5003 14.7725C13.4559 14.6608 13.3908 14.5594 13.3088 14.4742L11.1213 12.1825ZM9.87875 9.81751C9.96197 9.90096 10.0601 9.96638 10.1675 10.01C10.2722 10.0585 10.3855 10.0836 10.5 10.0836C10.6145 10.0836 10.7278 10.0585 10.8325 10.01C10.9399 9.96638 11.038 9.90096 11.1213 9.81751L13.3088 7.52584C13.3903 7.44037 13.455 7.33891 13.4992 7.22724C13.5434 7.11557 13.5661 6.99588 13.5661 6.87501C13.5661 6.75414 13.5434 6.63445 13.4992 6.52278C13.455 6.41111 13.3903 6.30965 13.3088 6.22418C13.2272 6.13871 13.1303 6.07091 13.0237 6.02466C12.9171 5.9784 12.8029 5.95459 12.6875 5.95459C12.5721 5.95459 12.4579 5.9784 12.3513 6.02466C12.2447 6.07091 12.1478 6.13871 12.0662 6.22418L11.375 6.95751V2.75001C11.375 2.5069 11.2828 2.27374 11.1187 2.10183C10.9546 1.92992 10.7321 1.83334 10.5 1.83334C10.2679 1.83334 10.0454 1.92992 9.88128 2.10183C9.71719 2.27374 9.625 2.5069 9.625 2.75001V6.95751L8.93375 6.22418C8.85217 6.13871 8.75531 6.07091 8.64872 6.02466C8.54212 5.9784 8.42788 5.95459 8.3125 5.95459C8.07949 5.95459 7.85602 6.05157 7.69125 6.22418C7.60967 6.30965 7.54495 6.41111 7.5008 6.52278C7.45664 6.63445 7.43392 6.75414 7.43392 6.87501C7.43392 7.11912 7.52648 7.35323 7.69125 7.52584L9.87875 9.81751Z" fill="#959696"/>
</svg>
