<svg width="24" height="22" viewBox="0 0 24 22" fill="none" xmlns="http://www.w3.org/2000/svg">
<path d="M12.3077 9.16667C11.2077 9.16667 10.3077 9.99167 10.3077 11C10.3077 12.0083 11.2077 12.8333 12.3077 12.8333C13.4077 12.8333 14.3077 12.0083 14.3077 11C14.3077 9.99167 13.4077 9.16667 12.3077 9.16667ZM18.3077 9.16667C17.2077 9.16667 16.3077 9.99167 16.3077 11C16.3077 12.0083 17.2077 12.8333 18.3077 12.8333C19.4077 12.8333 20.3077 12.0083 20.3077 11C20.3077 9.99167 19.4077 9.16667 18.3077 9.16667ZM6.30767 9.16667C5.20767 9.16667 4.30767 9.99167 4.30767 11C4.30767 12.0083 5.20767 12.8333 6.30767 12.8333C7.40767 12.8333 8.30767 12.0083 8.30767 11C8.30767 9.99167 7.40767 9.16667 6.30767 9.16667Z" fill="#959696"/>
</svg>
