<svg width="17" height="18" viewBox="0 0 17 18" fill="none" xmlns="http://www.w3.org/2000/svg">
<path d="M8.89667 1.6275C8.77953 1.54367 8.64138 1.49887 8.5 1.49887C8.35862 1.49887 8.22047 1.54367 8.10333 1.6275C7.89083 1.7775 3.01042 5.3775 3.01042 10.6875C3.01042 12.2291 3.58878 13.7075 4.61828 14.7976C5.64777 15.8876 7.04407 16.5 8.5 16.5C9.95593 16.5 11.3522 15.8876 12.3817 14.7976C13.4112 13.7075 13.9896 12.2291 13.9896 10.6875C13.9896 5.2875 9.10208 1.77 8.89667 1.6275ZM8.5 15C7.42037 14.998 6.3855 14.543 5.62208 13.7347C4.85867 12.9264 4.42896 11.8306 4.42708 10.6875C4.42708 6.9375 7.40917 4.11 8.5 3.1875C9.59792 4.095 12.5729 6.9375 12.5729 10.6875C12.571 11.8306 12.1413 12.9264 11.3779 13.7347C10.6145 14.543 9.57963 14.998 8.5 15Z" fill="#959696"/>
</svg>
