<svg width="19" height="17" viewBox="0 0 19 17" fill="none" xmlns="http://www.w3.org/2000/svg">
<path d="M17.3533 8.21668C15.7542 4.89459 12.7458 2.83334 9.5 2.83334C6.25417 2.83334 3.24583 4.89459 1.64667 8.21668C1.60307 8.30604 1.58057 8.4025 1.58057 8.50001C1.58057 8.59752 1.60307 8.69397 1.64667 8.78334C3.24583 12.1054 6.25417 14.1667 9.5 14.1667C12.7458 14.1667 15.7542 12.1054 17.3533 8.78334C17.3969 8.69397 17.4194 8.59752 17.4194 8.50001C17.4194 8.4025 17.3969 8.30604 17.3533 8.21668ZM9.5 12.75C6.99042 12.75 4.61542 11.1279 3.24583 8.50001C4.61542 5.87209 6.99042 4.25001 9.5 4.25001C12.0096 4.25001 14.3846 5.87209 15.7542 8.50001C14.3846 11.1279 12.0096 12.75 9.5 12.75ZM9.5 5.66668C8.87369 5.66668 8.26145 5.83285 7.74069 6.14418C7.21994 6.45551 6.81406 6.89802 6.57438 7.41574C6.3347 7.93346 6.27199 8.50315 6.39418 9.05277C6.51637 9.60238 6.81796 10.1072 7.26083 10.5035C7.70369 10.8997 8.26794 11.1696 8.88221 11.2789C9.49649 11.3882 10.1332 11.3321 10.7118 11.1177C11.2905 10.9032 11.785 10.5401 12.133 10.0741C12.4809 9.60819 12.6667 9.06039 12.6667 8.50001C12.6667 7.74856 12.333 7.02789 11.7392 6.49654C11.1453 5.96519 10.3399 5.66668 9.5 5.66668ZM9.5 9.91668C9.18685 9.91668 8.88072 9.83359 8.62035 9.67792C8.35997 9.52226 8.15703 9.30101 8.03719 9.04214C7.91735 8.78328 7.886 8.49844 7.94709 8.22363C8.00818 7.94883 8.15898 7.6964 8.38041 7.49828C8.60185 7.30015 8.88397 7.16523 9.19111 7.11056C9.49824 7.0559 9.8166 7.08396 10.1059 7.19118C10.3952 7.2984 10.6425 7.47998 10.8165 7.71295C10.9905 7.94592 11.0833 8.21982 11.0833 8.50001C11.0833 8.87573 10.9165 9.23607 10.6196 9.50174C10.3227 9.76742 9.91992 9.91668 9.5 9.91668Z" fill="#959696"/>
</svg>
