<svg width="20" height="20" viewBox="0 0 20 20" fill="none" xmlns="http://www.w3.org/2000/svg">
<path d="M10 1.66667C8.23189 1.66667 6.5362 2.36905 5.28595 3.61929C4.03571 4.86953 3.33333 6.56522 3.33333 8.33333C3.33333 12.8333 9.20833 17.9167 9.45833 18.1333C9.60928 18.2624 9.80137 18.3334 10 18.3334C10.1986 18.3334 10.3907 18.2624 10.5417 18.1333C10.8333 17.9167 16.6667 12.8333 16.6667 8.33333C16.6667 6.56522 15.9643 4.86953 14.714 3.61929C13.4638 2.36905 11.7681 1.66667 10 1.66667V1.66667ZM10 16.375C8.225 14.7083 5 11.1167 5 8.33333C5 7.00725 5.52678 5.73548 6.46447 4.7978C7.40215 3.86012 8.67392 3.33333 10 3.33333C11.3261 3.33333 12.5979 3.86012 13.5355 4.7978C14.4732 5.73548 15 7.00725 15 8.33333C15 11.1167 11.775 14.7167 10 16.375ZM10 5C9.34073 5 8.69626 5.1955 8.1481 5.56177C7.59993 5.92804 7.17269 6.44864 6.9204 7.05772C6.66811 7.66681 6.6021 8.33703 6.73071 8.98364C6.85933 9.63024 7.1768 10.2242 7.64298 10.6904C8.10915 11.1565 8.70309 11.474 9.3497 11.6026C9.9963 11.7312 10.6665 11.6652 11.2756 11.4129C11.8847 11.1606 12.4053 10.7334 12.7716 10.1852C13.1378 9.63707 13.3333 8.99261 13.3333 8.33333C13.3333 7.44928 12.9821 6.60143 12.357 5.97631C11.7319 5.35119 10.8841 5 10 5ZM10 10C9.67036 10 9.34813 9.90225 9.07405 9.71912C8.79997 9.53598 8.58635 9.27568 8.4602 8.97114C8.33405 8.6666 8.30105 8.33149 8.36536 8.00818C8.42967 7.68488 8.5884 7.38791 8.82149 7.15482C9.05458 6.92174 9.35155 6.763 9.67485 6.69869C9.99815 6.63438 10.3333 6.66739 10.6378 6.79354C10.9423 6.91968 11.2026 7.1333 11.3858 7.40738C11.5689 7.68147 11.6667 8.0037 11.6667 8.33333C11.6667 8.77536 11.4911 9.19929 11.1785 9.51185C10.8659 9.82441 10.442 10 10 10Z" fill="#959696"/>
</svg>
