<svg width="20" height="20" viewBox="0 0 20 20" fill="none" xmlns="http://www.w3.org/2000/svg">
<path d="M10 1.66666C9.40009 1.66894 8.80218 1.73599 8.21667 1.86666H8.11667C6.29711 2.29653 4.67497 3.32581 3.51106 4.78899C2.34716 6.25217 1.7091 8.06424 1.69948 9.93386C1.68986 11.8035 2.30925 13.622 3.45804 15.0971C4.60683 16.5722 6.2183 17.6181 8.03333 18.0667H8.15C8.75408 18.2278 9.37501 18.3173 10 18.3333C12.2101 18.3333 14.3298 17.4553 15.8926 15.8925C17.4554 14.3297 18.3333 12.2101 18.3333 9.99999C18.3333 7.78985 17.4554 5.67024 15.8926 4.10743C14.3298 2.54463 12.2101 1.66666 10 1.66666ZM8.33333 16.45C6.90667 16.0771 5.64389 15.2418 4.74263 14.0747C3.84136 12.9076 3.35247 11.4746 3.35247 9.99999C3.35247 8.5254 3.84136 7.09243 4.74263 5.92533C5.64389 4.75823 6.90667 3.92287 8.33333 3.54999C9.75999 3.92287 11.0228 4.75823 11.924 5.92533C12.8253 7.09243 13.3142 8.5254 13.3142 9.99999C13.3142 11.4746 12.8253 12.9076 11.924 14.0747C11.0228 15.2418 9.75999 16.0771 8.33333 16.45ZM12.1083 16.3167C13.0175 15.5343 13.747 14.565 14.2472 13.4748C14.7473 12.3847 15.0062 11.1994 15.0062 9.99999C15.0062 8.80058 14.7473 7.61531 14.2472 6.52515C13.747 5.43499 13.0175 4.46564 12.1083 3.68332C13.4301 4.12938 14.5786 4.97881 15.3922 6.11199C16.2057 7.24517 16.6433 8.60501 16.6433 9.99999C16.6433 11.395 16.2057 12.7548 15.3922 13.888C14.5786 15.0212 13.4301 15.8706 12.1083 16.3167Z" fill="#959696"/>
</svg>
