<svg width="21" height="20" viewBox="0 0 21 20" fill="none" xmlns="http://www.w3.org/2000/svg">
<path d="M14.4375 10.8333V4.58334C14.4375 3.58878 14.0227 2.63495 13.2842 1.93169C12.5458 1.22843 11.5443 0.833344 10.5 0.833344C9.45571 0.833344 8.45419 1.22843 7.71577 1.93169C6.97734 2.63495 6.5625 3.58878 6.5625 4.58334V10.8333C5.95774 11.486 5.54236 12.2777 5.35746 13.1302C5.17256 13.9827 5.22454 14.8663 5.50826 15.6938C5.79198 16.5213 6.29761 17.2639 6.97513 17.8481C7.65265 18.4324 8.47859 18.838 9.37125 19.025C9.74206 19.1055 10.1199 19.1529 10.5 19.1667C11.5155 19.1712 12.5107 18.8951 13.3648 18.3718C14.2189 17.8485 14.8953 17.1006 15.312 16.2186C15.7288 15.3365 15.868 14.3584 15.7127 13.4025C15.5575 12.4467 15.1145 11.5542 14.4375 10.8333ZM12.6875 16.725C11.9913 17.3129 11.0784 17.6133 10.1496 17.5602C9.22086 17.5071 8.35229 17.1047 7.735 16.4417C7.11771 15.7786 6.80226 14.9092 6.85805 14.0247C6.91384 13.1401 7.33631 12.3129 8.0325 11.725C8.11518 11.6478 8.18095 11.5558 8.22601 11.4542C8.27107 11.3527 8.29452 11.2436 8.295 11.1333V4.58334C8.295 4.03081 8.52547 3.50091 8.9357 3.1102C9.34594 2.7195 9.90234 2.50001 10.4825 2.50001C11.0627 2.50001 11.6191 2.7195 12.0293 3.1102C12.4395 3.50091 12.67 4.03081 12.67 4.58334V11.2C12.6705 11.3103 12.6939 11.4193 12.739 11.5209C12.784 11.6225 12.8498 11.7145 12.9325 11.7917C13.2902 12.1207 13.5701 12.5186 13.7536 12.9588C13.9372 13.399 14.0201 13.8713 13.9969 14.3444C13.9737 14.8175 13.845 15.2805 13.6192 15.7025C13.3934 16.1245 13.0758 16.4958 12.6875 16.7917V16.725ZM11.375 12.7333V10.4167C11.375 10.1957 11.2828 9.9837 11.1187 9.82742C10.9546 9.67114 10.7321 9.58334 10.5 9.58334C10.2679 9.58334 10.0454 9.67114 9.88128 9.82742C9.71719 9.9837 9.625 10.1957 9.625 10.4167V12.7333C9.36051 12.8788 9.14058 13.0876 8.98708 13.339C8.83358 13.5905 8.75184 13.8758 8.75 14.1667C8.75 14.6087 8.93437 15.0326 9.26256 15.3452C9.59075 15.6577 10.0359 15.8333 10.5 15.8333C10.9641 15.8333 11.4092 15.6577 11.7374 15.3452C12.0656 15.0326 12.25 14.6087 12.25 14.1667C12.2482 13.8758 12.1664 13.5905 12.0129 13.339C11.8594 13.0876 11.6395 12.8788 11.375 12.7333Z" fill="#959696"/>
</svg>
