<svg width="21" height="21" viewBox="0 0 21 21" fill="none" xmlns="http://www.w3.org/2000/svg">
<path d="M9.625 3.9375C9.73993 3.93757 9.85374 3.91498 9.95993 3.87103C10.0661 3.82708 10.1626 3.76263 10.2439 3.68136C10.3251 3.6001 10.3896 3.50361 10.4335 3.39743C10.4775 3.29124 10.5001 3.17743 10.5 3.0625V2.1875C10.5 1.95544 10.4078 1.73288 10.2437 1.56878C10.0796 1.40469 9.85706 1.3125 9.625 1.3125C9.39294 1.3125 9.17038 1.40469 9.00628 1.56878C8.84219 1.73288 8.75 1.95544 8.75 2.1875V3.0625C8.74993 3.17743 8.77252 3.29124 8.81647 3.39743C8.86042 3.50361 8.92487 3.6001 9.00614 3.68136C9.0874 3.76263 9.18388 3.82708 9.29007 3.87103C9.39626 3.91498 9.51007 3.93757 9.625 3.9375ZM3.5 10.0625C3.50007 9.94757 3.47748 9.83376 3.43353 9.72757C3.38958 9.62138 3.32513 9.5249 3.24386 9.44364C3.1626 9.36237 3.06611 9.29792 2.95993 9.25397C2.85374 9.21002 2.73993 9.18743 2.625 9.1875H1.75C1.51794 9.1875 1.29538 9.27969 1.13128 9.44378C0.967187 9.60788 0.875 9.83044 0.875 10.0625C0.875 10.2946 0.967187 10.5171 1.13128 10.6812C1.29538 10.8453 1.51794 10.9375 1.75 10.9375H2.625C2.73993 10.9376 2.85374 10.915 2.95993 10.871C3.06611 10.8271 3.1626 10.7626 3.24386 10.6814C3.32513 10.6001 3.38958 10.5036 3.43353 10.3974C3.47748 10.2912 3.50007 10.1774 3.5 10.0625ZM4.05627 14.3939L3.43765 15.0126C3.27357 15.1766 3.18139 15.3992 3.18139 15.6312C3.18139 15.8632 3.27357 16.0858 3.43765 16.2499C3.60172 16.4139 3.82426 16.5061 4.0563 16.5061C4.28834 16.5061 4.51087 16.4139 4.67495 16.2499L5.29357 15.6312C5.45765 15.4672 5.54983 15.2446 5.54983 15.0126C5.54983 14.7805 5.45765 14.558 5.29357 14.3939C5.1295 14.2298 4.90696 14.1377 4.67492 14.1377C4.44288 14.1377 4.22035 14.2298 4.05627 14.3939ZM4.05627 5.73107C4.13751 5.81232 4.23396 5.87676 4.34011 5.92073C4.44626 5.9647 4.56003 5.98733 4.67492 5.98733C4.78982 5.98733 4.90359 5.9647 5.00974 5.92073C5.11588 5.87676 5.21233 5.81232 5.29357 5.73107C5.37482 5.64983 5.43926 5.55338 5.48323 5.44724C5.5272 5.34109 5.54983 5.22732 5.54983 5.11242C5.54983 4.99753 5.5272 4.88376 5.48323 4.77761C5.43926 4.67146 5.37482 4.57501 5.29357 4.49377L4.67495 3.87515C4.51088 3.71107 4.28834 3.61889 4.0563 3.61888C3.82426 3.61888 3.60173 3.71105 3.43765 3.87512C3.27357 4.03919 3.18139 4.26173 3.18138 4.49377C3.18138 4.72581 3.27355 4.94834 3.43762 5.11242L4.05627 5.73107ZM14.5751 5.98745C14.69 5.98758 14.8038 5.965 14.91 5.921C15.0161 5.87701 15.1126 5.81246 15.1937 5.73107L15.8123 5.11245C15.9764 4.94837 16.0686 4.72584 16.0686 4.4938C16.0686 4.26176 15.9764 4.03922 15.8123 3.87515C15.6482 3.71107 15.4257 3.61889 15.1937 3.61889C14.9616 3.61889 14.7391 3.71107 14.575 3.87515L13.9564 4.49377C13.8341 4.61614 13.7508 4.77204 13.717 4.94174C13.6833 5.11145 13.7006 5.28736 13.7668 5.44722C13.833 5.60708 13.9451 5.74372 14.089 5.83987C14.2329 5.93602 14.402 5.98736 14.575 5.9874L14.5751 5.98745ZM11.375 10.5C11.3749 10.6149 11.3975 10.7287 11.4415 10.8349C11.4854 10.9411 11.5499 11.0376 11.6311 11.1189C11.7124 11.2001 11.8089 11.2646 11.9151 11.3085C12.0213 11.3525 12.1351 11.3751 12.25 11.375H16.625C17.321 11.3742 17.9882 11.0974 18.4803 10.6053C18.9724 10.1132 19.2492 9.44596 19.25 8.75C19.25 8.51794 19.1578 8.29538 18.9937 8.13128C18.8296 7.96719 18.6071 7.875 18.375 7.875C18.1429 7.875 17.9204 7.96719 17.7563 8.13128C17.5922 8.29538 17.5 8.51794 17.5 8.75C17.4969 8.98111 17.4038 9.2019 17.2403 9.36534C17.0769 9.52878 16.8561 9.62195 16.625 9.625H12.25C12.1351 9.62493 12.0213 9.64752 11.9151 9.69147C11.8089 9.73542 11.7124 9.79987 11.6311 9.88114C11.5499 9.9624 11.4854 10.0589 11.4415 10.1651C11.3975 10.2713 11.3749 10.3851 11.375 10.5ZM17.5 13.125H13.125C12.8929 13.125 12.6704 13.2172 12.5063 13.3813C12.3422 13.5454 12.25 13.7679 12.25 14C12.25 14.2321 12.3422 14.4546 12.5063 14.6187C12.6704 14.7828 12.8929 14.875 13.125 14.875H17.5C17.7321 14.875 17.9546 14.9672 18.1187 15.1313C18.2828 15.2954 18.375 15.5179 18.375 15.75C18.375 15.9821 18.2828 16.2046 18.1187 16.3687C17.9546 16.5328 17.7321 16.625 17.5 16.625C17.2679 16.625 17.0454 16.7172 16.8813 16.8813C16.7172 17.0454 16.625 17.2679 16.625 17.5C16.625 17.7321 16.7172 17.9546 16.8813 18.1187C17.0454 18.2828 17.2679 18.375 17.5 18.375C18.1962 18.375 18.8639 18.0984 19.3562 17.6062C19.8484 17.1139 20.125 16.4462 20.125 15.75C20.125 15.0538 19.8484 14.3861 19.3562 13.8938C18.8639 13.4016 18.1962 13.125 17.5 13.125ZM7.875 16.625C7.70194 16.625 7.53277 16.6763 7.38888 16.7725C7.24498 16.8686 7.13283 17.0053 7.06661 17.1652C7.00038 17.325 6.98305 17.501 7.01681 17.6707C7.05057 17.8404 7.13391 17.9963 7.25628 18.1187C7.37865 18.2411 7.53456 18.3244 7.7043 18.3582C7.87403 18.3919 8.04996 18.3746 8.20985 18.3084C8.36973 18.2422 8.50639 18.13 8.60254 17.9861C8.69868 17.8422 8.75 17.6731 8.75 17.5C8.75 17.2679 8.65781 17.0454 8.49372 16.8813C8.32962 16.7172 8.10706 16.625 7.875 16.625ZM13.125 16.625H11.375C11.1429 16.625 10.9204 16.7172 10.7563 16.8813C10.5922 17.0454 10.5 17.2679 10.5 17.5C10.5 17.7321 10.5922 17.9546 10.7563 18.1187C10.9204 18.2828 11.1429 18.375 11.375 18.375H13.125C13.3561 18.3781 13.5769 18.4712 13.7403 18.6347C13.9038 18.7981 13.9969 19.0189 14 19.25C14 19.4821 14.0922 19.7046 14.2563 19.8687C14.4204 20.0328 14.6429 20.125 14.875 20.125C15.1071 20.125 15.3296 20.0328 15.4937 19.8687C15.6578 19.7046 15.75 19.4821 15.75 19.25C15.7492 18.554 15.4724 17.8868 14.9803 17.3947C14.4882 16.9026 13.821 16.6258 13.125 16.625ZM9.625 13.125C8.81277 13.125 8.03382 12.8023 7.45949 12.228C6.88516 11.6537 6.5625 10.8747 6.5625 10.0625C6.5625 9.25027 6.88516 8.47132 7.45949 7.89699C8.03382 7.32266 8.81277 7 9.625 7C10.3226 6.99556 10.9997 7.23527 11.5391 7.67761C11.628 7.75043 11.7305 7.80501 11.8406 7.83822C11.9506 7.87143 12.0662 7.88262 12.1806 7.87116C12.295 7.85969 12.406 7.8258 12.5073 7.7714C12.6086 7.71701 12.6982 7.64319 12.7709 7.55416C12.8437 7.46513 12.8982 7.36263 12.9313 7.25253C12.9644 7.14243 12.9755 7.02688 12.964 6.91249C12.9524 6.79809 12.9184 6.6871 12.8639 6.58585C12.8095 6.48459 12.7356 6.39507 12.6465 6.32239C11.7953 5.62328 10.7264 5.2439 9.625 5.25C8.34865 5.25 7.12457 5.75703 6.22205 6.65955C5.31953 7.56207 4.8125 8.78615 4.8125 10.0625C4.8125 11.3389 5.31953 12.5629 6.22205 13.4655C7.12457 14.368 8.34865 14.875 9.625 14.875C9.85706 14.875 10.0796 14.7828 10.2437 14.6187C10.4078 14.4546 10.5 14.2321 10.5 14C10.5 13.7679 10.4078 13.5454 10.2437 13.3813C10.0796 13.2172 9.85706 13.125 9.625 13.125Z" fill="#959696"/>
</svg>
