<svg width="22" height="22" viewBox="0 0 22 22" fill="none" xmlns="http://www.w3.org/2000/svg">
<path d="M3.20832 8.25C3.38962 8.25 3.56685 8.19624 3.7176 8.09551C3.86834 7.99479 3.98583 7.85163 4.05521 7.68413C4.12459 7.51663 4.14275 7.33232 4.10738 7.1545C4.07201 6.97668 3.9847 6.81335 3.8565 6.68515C3.72831 6.55695 3.56497 6.46965 3.38716 6.43428C3.20934 6.39891 3.02503 6.41706 2.85753 6.48644C2.69003 6.55582 2.54687 6.67332 2.44614 6.82406C2.34542 6.97481 2.29166 7.15203 2.29166 7.33333C2.29166 7.57645 2.38823 7.80961 2.56014 7.98151C2.73205 8.15342 2.96521 8.25 3.20832 8.25ZM6.87499 8.25H13.2917C14.021 8.25 14.7205 7.96027 15.2362 7.44454C15.7519 6.92882 16.0417 6.22935 16.0417 5.5C16.0417 4.77065 15.7519 4.07118 15.2362 3.55546C14.7205 3.03973 14.021 2.75 13.2917 2.75C12.8094 2.752 12.3359 2.87828 11.9167 3.11667C11.8116 3.17655 11.7195 3.25663 11.6455 3.35228C11.5715 3.44793 11.5172 3.55727 11.4857 3.674C11.4542 3.79073 11.4461 3.91254 11.4618 4.03242C11.4776 4.1523 11.5169 4.26788 11.5775 4.3725C11.6381 4.47677 11.7188 4.56805 11.8148 4.6411C11.9108 4.71415 12.0202 4.76753 12.1369 4.79819C12.2536 4.82885 12.3751 4.83618 12.4946 4.81976C12.6142 4.80333 12.7292 4.76349 12.8333 4.7025C12.9743 4.62662 13.1315 4.58575 13.2917 4.58333C13.5348 4.58333 13.7679 4.67991 13.9398 4.85182C14.1117 5.02373 14.2083 5.25688 14.2083 5.5C14.2083 5.74312 14.1117 5.97627 13.9398 6.14818C13.7679 6.32009 13.5348 6.41667 13.2917 6.41667H6.87499C6.63187 6.41667 6.39872 6.51324 6.22681 6.68515C6.0549 6.85706 5.95832 7.09022 5.95832 7.33333C5.95832 7.57645 6.0549 7.80961 6.22681 7.98151C6.39872 8.15342 6.63187 8.25 6.87499 8.25ZM3.20832 11.9167H9.62499C9.8681 11.9167 10.1013 11.8201 10.2732 11.6482C10.4451 11.4763 10.5417 11.2431 10.5417 11C10.5417 10.7569 10.4451 10.5237 10.2732 10.3518C10.1013 10.1799 9.8681 10.0833 9.62499 10.0833H3.20832C2.96521 10.0833 2.73205 10.1799 2.56014 10.3518C2.38823 10.5237 2.29166 10.7569 2.29166 11C2.29166 11.2431 2.38823 11.4763 2.56014 11.6482C2.73205 11.8201 2.96521 11.9167 3.20832 11.9167ZM18.7917 8.25C18.973 8.25 19.1502 8.19624 19.3009 8.09551C19.4517 7.99479 19.5692 7.85163 19.6385 7.68413C19.7079 7.51663 19.7261 7.33232 19.6907 7.1545C19.6553 6.97668 19.568 6.81335 19.4398 6.68515C19.3116 6.55695 19.1483 6.46965 18.9705 6.43428C18.7927 6.39891 18.6084 6.41706 18.4409 6.48644C18.2734 6.55582 18.1302 6.67332 18.0295 6.82406C17.9288 6.97481 17.875 7.15203 17.875 7.33333C17.875 7.57645 17.9716 7.80961 18.1435 7.98151C18.3154 8.15342 18.5485 8.25 18.7917 8.25ZM16.9583 10.0833H13.2917C13.0485 10.0833 12.8154 10.1799 12.6435 10.3518C12.4716 10.5237 12.375 10.7569 12.375 11C12.375 11.2431 12.4716 11.4763 12.6435 11.6482C12.8154 11.8201 13.0485 11.9167 13.2917 11.9167H16.9583C17.2014 11.9167 17.4346 12.0132 17.6065 12.1852C17.7784 12.3571 17.875 12.5902 17.875 12.8333C17.875 13.0764 17.7784 13.3096 17.6065 13.4815C17.4346 13.6534 17.2014 13.75 16.9583 13.75C16.7152 13.75 16.482 13.8466 16.3101 14.0185C16.1382 14.1904 16.0417 14.4236 16.0417 14.6667C16.0417 14.9098 16.1382 15.1429 16.3101 15.3148C16.482 15.4868 16.7152 15.5833 16.9583 15.5833C17.6877 15.5833 18.3871 15.2936 18.9029 14.7779C19.4186 14.2622 19.7083 13.5627 19.7083 12.8333C19.7083 12.104 19.4186 11.4045 18.9029 10.8888C18.3871 10.3731 17.6877 10.0833 16.9583 10.0833ZM11.4583 13.75H7.79166C7.54854 13.75 7.31538 13.8466 7.14348 14.0185C6.97157 14.1904 6.87499 14.4236 6.87499 14.6667C6.87499 14.9098 6.97157 15.1429 7.14348 15.3148C7.31538 15.4868 7.54854 15.5833 7.79166 15.5833H11.4583C11.7014 15.5833 11.9346 15.6799 12.1065 15.8518C12.2784 16.0237 12.375 16.2569 12.375 16.5C12.375 16.7431 12.2784 16.9763 12.1065 17.1482C11.9346 17.3201 11.7014 17.4167 11.4583 17.4167C11.2982 17.4142 11.141 17.3734 11 17.2975C10.8957 17.2312 10.779 17.1866 10.657 17.1666C10.535 17.1465 10.4102 17.1513 10.2901 17.1807C10.1701 17.2102 10.0572 17.2636 9.95826 17.3377C9.85935 17.4119 9.77647 17.5053 9.7146 17.6124C9.65273 17.7194 9.61315 17.8378 9.59824 17.9606C9.58333 18.0833 9.59341 18.2078 9.62785 18.3265C9.6623 18.4452 9.72041 18.5558 9.79868 18.6515C9.87695 18.7472 9.97378 18.826 10.0833 18.8833C10.5025 19.1217 10.9761 19.248 11.4583 19.25C12.1877 19.25 12.8871 18.9603 13.4029 18.4445C13.9186 17.9288 14.2083 17.2293 14.2083 16.5C14.2083 15.7707 13.9186 15.0712 13.4029 14.5555C12.8871 14.0397 12.1877 13.75 11.4583 13.75ZM4.12499 13.75H3.20832C2.96521 13.75 2.73205 13.8466 2.56014 14.0185C2.38823 14.1904 2.29166 14.4236 2.29166 14.6667C2.29166 14.9098 2.38823 15.1429 2.56014 15.3148C2.73205 15.4868 2.96521 15.5833 3.20832 15.5833H4.12499C4.3681 15.5833 4.60126 15.4868 4.77317 15.3148C4.94508 15.1429 5.04166 14.9098 5.04166 14.6667C5.04166 14.4236 4.94508 14.1904 4.77317 14.0185C4.60126 13.8466 4.3681 13.75 4.12499 13.75Z" fill="#959696"/>
</svg>
